<svg xmlns="http://www.w3.org/2000/svg" width="211" height="211" viewBox="0 0 211 211"><path d="M113.1 80.1c-6.2 24.6-13.3 57.4-8.3 82.8 3.3 2.7 5.5 6.7 7.2 10.4 25.4-33.8 30.2-55.9 38.4-97.7h.1c6.4-11.9 8.2-33.8 10.1-47-4.1 4.9-39.7 43.3-43.9 38.4-1 4.5-2.5 8.8-3.6 13.1-.1.4.2-.9 0 0zm16.1-12.8c6.5-4.3 25.2-31.4 18.4-8.3-10.3 34.8-8.2 1.5-18.4 8.3 1.6-1.1-.7.5 0 0zm-5.9 58.4c1.8.1 3.4 2.3 3.4 4.3 1.5 11.2-16.2-5.3-3.4-4.3 1.8.1-1.9-.2 0 0z" fill="#D3862B"/><path d="M91.3 180.2c10.3 8.8 22 1.6 14.6-10.7-8.6-14.5-18.4 8.3-14.6 10.7z" fill="#535D47"/><path fill="#D3862B" d="M46.6 81.6h.1-.1zM86.3 125.3c-2-12.8-3.9-47.4-13-57.3-15.2 4-40-25.4-53.6-35.5 3.9 13.4 8.3 26.6 11.9 40h.1C37 90.9 42.2 109.4 47.5 128c5.6 19.8 26.4 33.7 40.6 48.1.9-17.6 1-32.4-1.8-50.8zM46.7 81.6c.1-.1.3-.1.3-.2-.1 0-.2 0-.3.2-.2 0-.2 0 0 0-9.2 5-14.9-21-13.6-25.7-2.2 7.1 41.8 10.5 13.6 25.7zm26.8 52.6c-2.3-.9-7.6-7.7-.5-7.8 2.4 1.1 7.5 7.7.5 7.8z"/><path d="M54.4 74.5c-6.2-4.6-11.7-9.8-17.7-14.7 5.8 14.2 1.2 24.7 17.7 14.7 0 0 0 .1 0 0z" fill="#535D47"/><path d="M76 67.2c10 31.3 11.7 63.6 18.2 95.6 2.2-1.4 4.7-1.9 7.6-1.5-1.1-24.5 1.8-49.4 6.8-73.3 2-10.4 11.8-23.5-3.5-25.2-4.7-.6-30 1.3-29.1 4.4zm19.7 7.9c.2-.6.4-1.3.7-1.8 2 3.6 2.2 7.8.5 11.6-1.7-3-2.2-6.5-1.2-9.8.1-.5-.3 1.1 0 0zm-4.3 6.3c.2-.6.5-1.1.8-1.5 1.8 3.1 1.8 6.8 0 9.9-1.5-2.5-1.9-5.6-.8-8.4.1-.4-.4 1 0 0z" opacity=".9" fill="#D3862B"/><path d="M135.1 70.7c.9.7 1.9 1.3 2.9 1.8 1.1.6 2.1 1.2 3.2 2 .2-.9.4-1.8.7-2.7.5-1.9.9-3.8 1.3-5.7.1-.6.2-1.3.3-1.9.2-1.1.4-2.5 1-3.8.6-1.5.8-3 .9-4.8-1.9 2.1-3.8 3.9-5.6 5.8-.7.6-1.3 1.3-1.9 1.9-.8.8-1.6 1.6-2.5 2.3-1.1 1-2.2 2-3.2 3.1h.1c1 .8 1.9 1.4 2.8 2z" fill="#535D47"/><path d="M139.6 152c1.1-1.3 2-2.7 3.1-4.3 2.2-3.3 4.6-7.2 6-11.7.2-.7.5-1.5.9-2.2.4-.9.8-1.8 1-2.8.6-2.5.9-5.2.9-8 0-3.5.5-6.9 1.1-10.3.3-2 .7-4 .9-6.1.5-4.3.7-7.8.8-11.1.1-3-.2-6-.4-8.9-.1-.8-.1-1.6-.2-2.4l-.1-.8c-.1-1.5-.3-3-.1-4.4.3-2.8.8-5.6 1.4-8.6.3-1.6.7-3.1 1.1-4.7l.6-2.4c.4-1.6.8-3.3 1.1-4.9.4-1.7.8-3.3 1.2-5 .2-.9.4-1.8.6-2.6.5-2.2 1-4.4 1.5-6.7.3-1.3.5-2.7.6-3.9.2-1.6.4-3.3.8-4.9.4-1.7.7-3.5 1-5.2.2-1 .4-2.1.6-3.1.3-1.4-.8-2-1.2-2.3-.8-.5-1.6-.4-2.3.3-.8.7-1.5 1.5-2.3 2.2-1.4 1.4-2.9 2.8-4.4 4.3-.7.7-1.3 1.5-1.8 2.2-.5.7-1 1.3-1.5 1.9-2.1 2.3-4.5 4.6-7.1 7-.5.4-.9.9-1.3 1.4-.5.5-.9 1-1.4 1.5-2 1.6-4 3.3-5.8 5.1-1.8 1.8-3.8 3.6-5.6 5.3l-2.7 2.4c-.8.7-1.6 1.4-2.4 2-1.4 1.1-2.8 2.2-4 3.7-.4.5-1 .5-1.6.1-.9-.6-2-1.1-3.2-1.3-.9-.2-1.7-.4-2.3-.7-4.7-2.3-9.7-2.3-14.6-2.3h-.7c-3.4 0-6.8.4-9.9.8-5.7.7-12.2 1.8-17.9 5.6-.2.2-.3.2-.6 0-.9-.6-1.8-1.1-2.7-1.7-1.8-1.1-3.7-2.3-5.4-3.6-1-.8-2.1-1.6-3.2-2.4-2.2-1.6-4.4-3.2-6.3-5.2-1.7-1.7-3.7-3-5.6-4.3-.6-.4-1.3-.8-1.9-1.2-1.6-1.1-3.2-2.3-4.8-3.5-1-.8-2.1-1.5-3.1-2.3-1.9-1.4-3.7-3-5.5-4.5-2.2-1.9-4.4-3.9-6.9-5.5-.6-.4-1.2-.9-1.8-1.4-.9-.8-1.8-1.6-3-2.2-.5-.2-.9-.4-1.4-.4-.4 0-.8.1-1.2.4-.7.5-.9 1.4-.5 2.5.2.8.4 1.5.6 2.3.2 1.1.4 2.2.9 3.3.7 1.7 1.3 3.2 1.7 4.8.8 3.8 2.2 7.4 3.5 11 .3.7.5 1.5.8 2.2 1.2 3.2 2.4 6.4 3.1 9.8.2 1.1.6 2.2.9 3.3.7 2.4 1.3 4.6 1.4 6.9 0 .5.1.9.1 1.4 0 .3.1.5.1.8.1.7.2 1.5.3 2.2.2 1 .4 2 .4 2.9 0 2.2 0 4.5.3 6.9.2 1.3.2 2.7.3 4 .1 1.6.1 3.2.4 4.8l.1.7c.4 2.3.7 4.7.7 6.9 0 2.9.5 5.7.9 8.4.4 2.4.8 4.9.9 7.4.1 2.2.3 4.5.8 7 .1.7.3 1.5.4 2.3.4 2.8.8 5.8 3.1 8.2 2.2 3.6 4.4 6.3 6.9 8.6.6.5 1.9 1.2 2.1 2 1 1.2 1.5 1.9 2.6 2.9v-.1c1.6 1.6 3.4 3.1 5.1 4.6 1.1.9 2.1 1.8 3.2 2.8 1.4 1.2 2.8 2.5 4.2 3.7l2.4 2.1c.7.6 1.3 1.2 1.9 1.8 1.4 1.4 2.9 2.8 4.7 3.9 1 .6 1.9 1.4 2.7 2.1.3.2.5.4.8.7 1.8 1.5 3.9 2.7 5.9 3.9 1.6 1 3.3 1.9 4.8 3.1 1.8 1.3 3.8 2.4 5.8 3.3.5.2 1 .5 1.4.7.6.3 1.1.5 1.7.8l1.2.6c.3.2.6.3 1 .5 1 .5 2 .9 3.2 1h.9c1.5 0 2.8-.3 4-1l.1-.1c.2-.1.3-.2.5-.2 2.1-.5 3.8-1.8 5.3-3 .3-.3.7-.6 1-.8.9-.7 1.7-1.4 2.4-2.2.4-.5.8-.9 1.3-1.4l.6-.6c.6-.7 1.2-1.4 1.9-2 .6-.6 1.3-1.2 1.9-1.7.4-.4.8-.8 1.3-1.1 1.6-1.5 3.3-3 4.8-4.7 1.3-1.4 2.6-2.8 3.9-4.1 1.5-1.6 3.1-3.3 4.6-5 .5-.6 1-1.1 1.5-1.7.4-.5.9-1 1.3-1.5.1-.2.3-.3.4-.5m-27 23.2c-1.9 1.8-3.8 3.1-5.8 4-1.5.7-3.1 1.3-4.7 1.3-1.2 0-2.2-.3-3.3-1-.8-.5-1.5-1-2.3-1.5l-1.5-.9-1.2-.8c-.1-.1-.1-.1-.1-.3v-2c-.1-1.7.2-3.4.5-4.9.8-3.5 2.3-6.1 4.6-7.9.7-.6 1.9-1.3 3-1.3.6 0 1.2.2 1.8.6.4.3.9.6 1.3.8.9.5 1.7 1 2.2 1.9.5.8.9 1.6 1.4 2.4.9 1.6 1.9 3.2 2.8 4.8.4.7.7 1.3 1.1 2 .1.3.3.7.6 1.1.2.7.1 1.2-.4 1.7zm40.9-77.4c-.2 1.1-.4 2.4-.3 3.7 0 1.9-.3 3.6-.6 5.5-.1.4-.2.9-.2 1.3-.2 1.2-.4 2.3-.5 3.5l-.3 2.1c-.1.7-.2 1.4-.4 2.1-.3 1.5-.5 2.9-.6 4.4-.1.5-.1 1-.2 1.4l-.3 2.4c-.3 2.6-1 5-1.9 7.7-.2.5-.3 1-.5 1.5-.1.4-.3.9-.5 1.3-1.2 3-3 5.7-4.7 8.2l-.5.8c-.8 1.1-1.5 2.2-2.4 3.3-1 1.4-2.1 2.7-3.2 3.9-1.5 1.6-3 3.2-4.4 4.8-1.8 2-3.7 4.1-5.6 6.1-.7.7-1.4 1.5-2.1 2.2-1.3 1.3-3.1 3-4.9 4.6-.5.4-1 .9-1.5 1.4-.1.1-.2.1-.2.2l26.1-34.8-.3-.2 10.1-51.5c.1 1.4.2 2.8.2 4.1 0 .9 0 1.8.1 2.6-.1 2.4 0 5-.4 7.4zm-36-29.1c.1-.4.3-.8.4-1.2.1-.3.2-.7.4-1 .3-1 .7-2.1 1-3.2.3.3.6.6.9.8h.2c.8.4 1.7.2 2.4-.5.1-.1.3-.3.4-.5.4-.5.8-.9 1.3-1.2.2-.1.3-.2.5-.4 1.4-1 2.8-2.1 4.2-3.4l.8-.8.3-.3c2.6-2.5 5.2-5 7.9-7.3 2.1-1.9 3.9-3.4 5.4-4.8l1-.9c.3-.2.5-.5.8-.7 1.7-1.6 3.4-3.2 5.1-4.9l.7-.7c1.9-2 4-4.1 5.8-6.3.9-1 1.9-2 2.9-3 1.1-1.1 2.3-2.2 3.3-3.5-.1.3-.1.7-.1 1v.3c-.2 1.2-.3 2.4-.6 3.5-.3 1.4-.6 2.8-.9 4.3-.7 3.3-1.5 6.6-2.2 9.9-.4 1.9-.9 3.8-1.3 5.8l-.3 1.3-1.2 5.4c-.7 3-1.3 6.1-1.9 9.2-.1.4-.1.8-.2 1.3-.3 1.7-.6 3.5-1.4 5.1h-.1l-.1.5c-.1.3-.2.5-.2.8L138 138.7l-26 34.7c-.3-.6-.5-1.1-.7-1.7-.6-2.1-2-3.8-3.2-5-.4-.4-.8-.9-1.2-1.3l-.3-.3c-.4-.5-.8-1-1.3-1.4-.2-.2-.4-.4-.6-.5v-.2c0-.2.1-.4 0-.6-.3-1.6-.3-3.1-.3-4.8 0-1 0-2.1-.1-3.1s-.1-2.1-.1-3.1c0-1.7.1-3.5.2-5.4.1-1.7.1-3.5.2-5.2 0-1.5.1-3.1.1-4.7.1-2.3.3-4.8.7-7.4.2-1.3.2-2.7.3-4 .1-1.5.1-3 .4-4.4.5-3 .9-6.1 1.2-9.1.3-2.5.6-5.1 1-7.7.4-3 1-6 1.6-9 .1-.3.1-.5.2-.8.4-1.8.7-3.6 1-5.5.1-.6.2-1.1.3-1.7l1.2-5.1c.1-.4.2-.8.3-1.1.2-1 .5-1.9.7-2.9.1-.4.2-.7.2-1.1.5-1.4.8-2.6 1.2-3.8zm-38.7-5.9c1.5-1 3.2-1.4 5-1.9.3-.1.6-.2.9-.2 4.8-1.2 9-1.8 14.1-2 .7-.1 1.7-.1 2.7-.1 1.9 0 4 .1 6 .3 2.7.3 5.3 1.3 7.4 2.3.6.3 1.3.6 1.4.8.1.2-.2 1-.4 1.6-.8 2.2-1.3 4.6-1.7 6.8-.3 1.7-.7 3.5-1.2 5.2-.8 2.6-1.3 5.3-1.8 7.9 0 .2-.1.4-.1.6l-.3 1.4c-.3 1.6-.6 3.1-1 4.7-.1.3-.1.5-.2.8-.5 2.4-1 4.8-1.4 7.2-.5 3.2-1 6.3-1.4 9.4-.4 3.4-.8 6.9-1.1 10.8-.1 1.6-.3 3.3-.5 4.9-.2 1.6-.4 3.2-.5 4.8-.1 1.7-.2 3.4-.2 5.1 0 3 0 5.8-.1 8.6 0 1.3-.1 2.5-.2 3.7-.1 1.3-.1 2.6-.2 3.9-.1 2.1 0 4.2.1 6.2 0 .6.1 1.1.1 1.7-2.3-.7-4.6-.3-7.2 1.3-.1.1-.3.2-.3.2 0-.2-.1-.4-.1-.5-.1-.9-.4-1.8-.6-2.7l-.3-1.2c-.4-1.7-.5-3.4-.6-5.4 0-1-.2-1.9-.3-2.8-.1-.7-.2-1.4-.3-2-.3-2.8-.6-6.1-1.1-9.4-.3-2-.6-4.1-.7-6-.2-1.7-.3-3.5-.6-5.3-.4-2.6-.9-5.3-1.4-7.5l-.3-1.5c-.2-1-.4-2-.5-3.1-.1-.8-.3-1.6-.4-2.5-.2-1.2-.4-2.4-.7-3.6l-.1-.2c-.3-1.4-.6-2.9-1-4.3-.5-2.2-.9-4.5-1.3-6.7-.3-1.9-.8-3.8-1.2-5.6-.3-1.2-.6-2.4-.8-3.6-.1-.6-.3-1.3-.4-1.9-.1-.6-.3-1.2-.5-1.8l-.1-.4c-.4-1.2-.8-2.4-.8-3.7 0-1.2-.4-2.2-.8-3.2-.2-.6-.4-1.1-.6-1.6-.2-.7-.3-1.3-.5-2-.5-1.8-1-3.5-1.6-5.2l-.6-1.7c0-.1 0-.1-.1-.2 0-.2.1-.2.4-.4zm-43.9 8.2c-.1-.2-.1-.3-.2-.5l-.5-1.9h-.1c-.4-1.3-.6-2.6-.9-3.9-.1-.3-.1-.6-.1-.9-.1-.6-.2-1.2-.4-1.8-.4-1.8-1-3.5-1.6-5.1-.4-1.2-.9-2.4-1.2-3.6-.2-.6-.3-1.1-.5-1.7-.5-1.6-1.2-3.3-1.8-4.8-1-2.5-2-5.2-2.7-7.8-.3-1.3-.7-2.5-1.1-3.7-.5-1.6-1-3.1-1.3-4.8-.1-.5-.2-1.1-.3-1.6 0-.1 0-.2-.1-.3.9.7 1.9 1.4 2.8 2 2.1 1.4 4.2 2.9 6 4.8.5.5.9.9 1.4 1.3 1.4 1.3 3 2.4 4.5 3.5 1.3 1 2.7 1.9 3.9 3 2.7 2.2 5.5 4.4 8.2 6.4 2.7 2 5.5 4.2 8.2 6.4.9.8 1.9 1.4 2.8 2 .5.4 1.1.7 1.6 1.1l.8.5c2.3 1.6 4.7 3.4 7.2 4.8.1.1.2.1.2.1.2.1.2.2.2.2 0 1.1.6 1.5 1.2 1.7.2.1.4.1.5.1.1 0 .2 0 .3.1.2 0 .3.1.4.1h.3c.7-.2.9-.8 1-1.1v-.1c.1-.2.6-.5 1-.8.4-.2.7-.4.9-.4.1.1.1.2.2.4l.3.8c.1.3.2.6.3.8.2.6.4 1.2.6 1.9.4 1.4.8 2.9 1.2 4.3.7 2.5 1.4 5 2 7.5.5 2 .9 4.1 1.3 6.1.4 2.3.9 4.6 1.5 6.9.2.8.4 1.5.6 2.3.9 3.2 1.6 6.5 2.2 9.8.3 1.8.7 3.7 1.1 5.5.8 3.7 1.4 7.5 2 11.2.2 1.1.3 2.2.5 3.3.4 2.5.6 5 .9 7.5.2 1.9.4 3.9.6 5.8.3 2 .6 4 .8 6 .2 1.5.4 2.9.6 4.4l.1.5c.1.8.2 1.6.2 2.3 0 4.2.4 7.3 1.3 10.2.1.5-.1.8-.5 1.4l-.1.1c-2 3.1-2.6 6.5-2.8 9.4l-37.8-38.4-17.5-62.5c0-.3-.1-.6-.2-.8zm11.1 67c-.9-.9-2.2-2.4-2.7-4.1-.1-.3-.2-.5-.4-.8-.2-.4-.5-.7-.8-1-.2-.2-.4-.5-.6-.7-1.2-1.7-1.6-3.8-2-6l-.1-.5c-.1-.5-.2-1-.2-1.5-.2-1.6-.3-3.1-.4-4.7-.1-1.8-.3-3.6-.6-5.5-.1-.9-.3-1.9-.5-2.8-.2-1-.4-2-.6-3.1-.2-1.5-.3-3-.3-4.4-.1-1.5-.1-3-.3-4.5-.1-1.1-.3-2.1-.4-3.2-.1-.9-.2-1.8-.2-2.7-.1-.8-.1-1.5-.2-2.3 0-.5-.1-.9 0-1.4V91c0-1.4-.2-2.9-.4-4.3l14.8 52 1.4-.4-1 1 36.9 37.5c-.9-.5-1.8-1.1-2.7-1.6-1.2-.7-2.4-1.5-3.6-2.1-.4-.2-.8-.4-1.1-.7-1.1-.7-2-1.6-3-2.5-.6-.5-1.2-1.1-1.8-1.6-.6-.5-1.3-1-2-1.6-.3-.2-.6-.5-.9-.7-1.1-.9-2.1-1.7-3.1-2.7-1-1.1-2.2-2-3.4-2.9-.8-.7-1.7-1.4-2.5-2.1-.7-.6-1.4-1.2-2.1-1.7-.9-.7-1.8-1.3-2.5-2.1-1.1-1.2-2.2-2.2-3.4-3.1-.9-.7-1.8-1.5-2.6-2.3-1.3-1.3-2.5-2.6-3.7-3.9-.9-1.2-1.9-2.3-3-3.4zM54.8 77.4c.7-.5 1.3-1 2.2-1 .3 0 1.1-.2 1.4-1.5.1-.3.1-1.1-.9-1.7-.5-.3-1-.7-1.5-1.2-1.6-1.7-3.5-3.2-5.2-4.6-.9-.7-1.8-1.4-2.6-2.2-.9-.8-1.9-1.5-2.9-2.2-.8-.6-1.7-1.3-2.5-2l-1-.9c-1.3-1.1-2.6-2.2-3.9-3.2-.7-.6-1.4-1.1-2.1-1.7-.1-.1-.3-.2-.5-.3 0 0-.1-.1-.2-.1-.2-.1-.4-.2-.7-.2-.3 0-.5.1-.8.2-.1.1-.2.1-.2.2l-.2.2s0 .1-.1.1l-.1.1s0 .1-.1.1V55.8c0 .2 0 .4-.1.5v.2c0 .8.2 1.4.5 2v.1c.5 1.4 1 2.7 1.6 4.1 1 2.6 2.1 5.3 3 8.1l.9 2.7c.3.8.5 1.7.8 2.6.5 1.8 1 3.7 1.8 5.5.1.2.2.3.3.5.2.3.4.5.5.7.2.2.4.3.5.3h.7c.6 0 1.2-.3 1.7-.8.4-.4.8-.7 1.3-.9 1-.5 2-1 2.9-1.4 1.6-.7 3.2-1.4 4.7-2.5.5.1.6 0 .8-.1zm-10.5 2.4c-.2.1-.4.1-.4.1-.1 0-.3-.4-.3-.5-1.6-5.7-3.3-10.6-5-15-.3-.7-.5-1.4-.8-2.1-.3-.8-.6-1.6-1-2.5.8.7 1.6 1.3 2.3 2 1.2 1.2 2.6 2.3 3.8 3.3.8.7 1.7 1.4 2.5 2.2l.9.8c2.5 2.2 5.1 4.5 8.1 6.4-2.9 1.8-6.1 3.4-10.1 5.3z" fill="#3C3B32"/><path d="M135.4 65.6c.1-.1.2-.1 0 0z" fill="#57504F"/><path d="M129.3 70.5c.9.6 1.9 1.1 2.8 1.7 1.5.9 2.9 1.8 4.4 2.7l.5.3c1.2.7 2.3 1.4 3.2 2.4.4.4.8.9 1.4.9.4 0 .8-.2 1.1-.5l.3-.3c.8-.8.9-1.8 1-2.6 0-.2 0-.4.1-.7.2-1.3.5-2.6.9-3.9.2-.9.4-1.7.6-2.6.1-.6.2-1.2.4-1.8.4-1.8.7-3.6 1.2-5.4.2-.6.3-1.2.5-1.8.3-1.1.4-2.2.5-3.2.2-1.7.3-3.3 1.3-4.7.2-.4.3-.8.1-1.3-.2-.5-.6-1-1.2-1.2l-.1-.1h-.2c-.8.1-1.1.6-1.3.9-.1.2-.3.5-.4.7-1 1.6-2.3 2.9-3.7 4.2-.3.2-.5.5-.8.7-.7.7-1.5 1.5-2.3 2.2-1.4 1.3-2.8 2.7-4.1 4.1l-.5.5c-.5.5-.9 1-1.4 1.4-1.4 1.4-2.8 2.7-4.5 3.8-.7.5-1.1 1-1.1 1.6.2 1 .5 1.5 1.3 2zm5.7-4.6c-.1.1-.1.2 0 0zm.3-.2c.8-.8 1.7-1.5 2.5-2.3l1.9-1.9c1.8-1.8 3.7-3.7 5.6-5.8-.1 1.8-.3 3.3-.9 4.8-.6 1.3-.8 2.7-1 3.8-.1.6-.2 1.3-.3 1.9-.4 1.9-.8 3.8-1.3 5.7-.2.9-.4 1.8-.7 2.7-1-.8-2.1-1.4-3.2-2-1-.6-2-1.2-2.9-1.8-.8-.6-1.8-1.2-2.9-1.8h-.1c1.1-1.3 2.2-2.3 3.3-3.3z" fill="#3C3B32"/><path d="M91.9 89.4c.1.1.2.2.2.3 0 .1.1.1.1.1l.1-.1c0-.1.1-.2.2-.3.2-.3.4-.7.5-1.1.4-.9.6-2.2.6-3.4 0-1.2-.2-2.5-.6-3.4-.2-.5-.4-.9-.5-1.1-.1-.1-.2-.2-.2-.3l-.1-.1-.1.1c0 .1-.1.2-.2.3-.2.3-.4.7-.5 1.1-.4.9-.6 2.2-.6 3.4 0 1.2.2 2.5.6 3.4.1.4.3.8.5 1.1zM96 83.1c.2.5.4 1 .6 1.3.2.3.3.5.3.5s.1-.2.3-.5c.2-.3.3-.8.5-1.3.3-1.1.5-2.6.4-4-.1-1.4-.4-2.9-.8-3.9-.2-.5-.4-1-.6-1.3-.2-.3-.3-.5-.3-.5s-.1.2-.3.5c-.2.3-.3.8-.5 1.3-.3 1.1-.5 2.6-.4 4 .1 1.4.4 2.8.8 3.9z" fill="#57504F"/><path d="M145.3 136.9c0 1.4-.4 5.9-1.8 5.9l-100.8-1.1c-1.4 0-3.9-3.6-3.9-5l-4.9-9.2c0-1.4-1.8-17.5-.6-16.1l117.9 6.2c1.4 0 .3 2.6.3 4l-6.2 15.3z" fill="#3C3B32"/><circle cx="72.3" cy="128.7" r="7.9" fill="#fff"/><circle cx="124" cy="128.7" r="7.9" fill="#fff"/><path d="M73.5 134.2c1.6 0 3.7-2.4 3.7-4.2v-.3c-.2-1.7-2.1-3.3-4-3.3s-3.4 1.5-3.4 3.4c0 1.4.4 2.6 1.2 3.4.6.6 1.5 1 2.5 1zm-.8-4.5c.1-.2.4-.2.6-.2.6.1.6.2.6.4 0 .7-.2 1.1-.3 1.3-.1.1-.2.1-.3.1-.2 0-.7-.5-.7-1.1 0-.2 0-.4.1-.5zM122.5 133.5c1.2 0 2.7-.4 3.5-1.4.5-.6.7-1.3.6-2.1 0-2.1-1.6-4.2-3.4-4.3-1.9-.1-4 2.1-4.1 4.3 0 .8.4 1.8 1.1 2.5.8.6 1.6 1 2.3 1zm.3-4.2c.1-.1.3-.2.4-.2h.1v.4c0 .3 0 .7.2 1.1 0 .1-.1.2-.5.2-.6 0-.6-.1-.6-.3-.1-.5.1-1 .4-1.2zM190.5 126.3c8.4-1.2-7.8 16.7-20.2 18.5-12.4 1.8-23.4-3.6-24.7-12-1.2-8.4 8.9-9.7 21.2-11.5 12.4-1.8 19 5.7 23.7 5zM196.4 146.5c9.6 2.8-14.3 6.8-28.3 2.7s-24.1-11.9-22.5-17.5c1.6-5.6 13-2.2 27 1.9s18.5 11.4 23.8 12.9z" fill="#3C3B32"/></svg>